<svg display="none" xmlns="http://www.w3.org/2000/svg">

    <symbol id="menu" viewBox="0 0 24 24">
        <path
                d="M4 6C4 5.44772 4.44772 5 5 5H19C19.5523 5 20 5.44772 20 6C20 6.55228 19.5523 7 19 7H5C4.44772 7 4 6.55228 4 6Z"
        />
        <path
                d="M4 18C4 17.4477 4.44772 17 5 17H19C19.5523 17 20 17.4477 20 18C20 18.5523 19.5523 19 19 19H5C4.44772 19 4 18.5523 4 18Z"
        />
        <path
                d="M11 11C10.4477 11 10 11.4477 10 12C10 12.5523 10.4477 13 11 13H19C19.5523 13 20 12.5523 20 12C20 11.4477 19.5523 11 19 11H11Z"
        />
    </symbol>

    <symbol id="phone" viewBox="0 0 800 800">
        <g>
            <path d="M319.48,352.08c10.85,14.94,20.88,30.09,32.25,44.15c26.41,32.66,57.53,60.12,93.61,81.84c3.35,2.02,5.05,1.43,7.5-1.1
		c8.11-8.39,16.41-16.59,24.69-24.81c18.53-18.42,43.74-18.51,62.25-0.13c15.97,15.85,31.89,31.76,47.73,47.74
		c18.11,18.28,17.62,43.21,0.03,62.03c-20.02,21.43-43.94,34.78-73.04,38.66c-24.83,3.3-49.21,0.57-73.21-6
		c-44.13-12.08-82.9-34.31-117.92-63.3c-42.14-34.87-76.29-76.22-99.95-125.79c-14.87-31.15-24.36-63.75-24.51-98.56
		c-0.17-38.44,13.41-70.82,42.81-96.24c16.91-14.62,41.13-14.8,57.19,0.72c17.5,16.91,34.71,34.13,51.64,51.61
		c16.15,16.68,15.66,41.95-0.81,59.01C340.26,331.73,330.41,341.21,319.48,352.08z M492.82,571.81
		c29.04,0.35,53.86-9.04,73.39-31.17c6.29-7.12,6.52-13.25-0.28-20.08c-15.63-15.71-31.31-31.39-47.01-47.03
		c-7.01-6.98-13.35-6.96-20.37,0.03c-11.58,11.52-23.08,23.12-34.66,34.63c-6.55,6.52-12.62,7.38-20.76,2.88
		c-65.66-36.32-116.67-87.35-153.18-152.89c-5.05-9.06-4.19-14.66,3.08-21.95c11.65-11.69,23.38-23.29,34.96-35.04
		c5.63-5.71,5.85-12.62,0.35-18.2c-16.39-16.61-32.89-33.1-49.49-49.5c-5.35-5.28-11.8-5.07-17.46-0.24
		c-21.61,18.45-31.96,42.11-32.48,70.26c-0.52,28,6.03,54.62,17.51,79.86c34.36,75.53,89.41,131.23,163.76,167.7
		C436.13,563.82,463.68,571.32,492.82,571.81z"/>
            <path d="M587.93,400.78c0,1.5,0,3,0,4.5c-0.01,9.26-6.23,16.09-14.76,16.21c-8.38,0.12-15.08-6.67-15.18-15.89
		c-0.16-15.77-2.5-31.17-6.98-46.29c-18.65-62.96-76.05-109.63-141.36-114.85c-4.32-0.34-8.64-0.62-12.97-0.75
		c-9.74-0.3-16.37-6.43-16.27-15.18c0.1-8.77,6.95-14.99,16.6-14.82c48.6,0.9,91.18,17.38,127.38,49.84
		C563.54,298.65,587.21,350.14,587.93,400.78z"/>
            <path d="M402.05,277.27c67.94,3.82,121.49,59.25,122.59,127.03c0.19,11.98-9.29,19.82-19.77,16.33
		c-6.27-2.09-9.97-7.43-10.18-15.02c-0.62-22.69-7.44-43.22-21.76-60.92c-18.21-22.49-41.81-35.03-70.78-37.2
		c-2.82-0.21-5.66-0.24-8.47-0.58c-7.83-0.95-13.37-7.26-13.26-14.97c0.11-7.7,5.78-13.88,13.65-14.63
		C396.7,277.06,399.39,277.27,402.05,277.27z"/>
        </g>
    </symbol>

    <symbol id="exit" viewBox="0 0 800 800">
        <path d="M658.84,620.03c-2.25,2.9-4.26,6.04-6.79,8.66c-7.36,7.62-14.92,15.04-22.41,22.53c-9.66,9.67-14.49,9.71-24.02,0.18
	c-66.94-66.94-133.88-133.88-200.8-200.84c-1.3-1.3-2.28-2.9-3.42-4.37c-0.74-0.29-1.47-0.57-2.21-0.86
	c-1.02,1.75-1.71,3.82-3.1,5.21c-67.01,67.11-134.07,134.17-201.13,201.22c-8.93,8.93-14.11,8.96-22.94,0.14
	c-7.97-7.96-15.94-15.92-23.9-23.9c-8.18-8.2-8.2-13.7-0.03-21.86c67.18-67.18,134.36-134.35,201.57-201.51
	c1.41-1.41,3.05-2.6,4.85-4.12c-1.93-2.04-3.25-3.5-4.64-4.89c-66.82-66.82-133.65-133.64-200.48-200.45
	c-1.19-1.19-2.43-2.33-3.54-3.59c-5.03-5.73-5.29-11.63-0.01-17.13c9.43-9.83,19.15-19.37,28.87-28.91c1.62-1.6,3.82-2.61,5.75-3.89
	c2.02,0,4.04,0,6.06,0c3.35,2.73,6.96,5.2,10,8.23c66.52,66.42,132.98,132.89,199.41,199.4c1.4,1.4,2.34,3.27,3.49,4.92
	c0.72,0.03,1.43,0.05,2.15,0.08c1.13-1.66,2.04-3.56,3.43-4.96c66.79-66.86,133.61-133.69,200.48-200.47
	c2.69-2.69,5.96-4.81,8.96-7.2c2.02,0,4.04,0,6.06,0c2.41,1.76,5.06,3.26,7.18,5.31c7.2,6.96,14.32,14.02,21.25,21.24
	c3.55,3.7,6.63,7.85,9.92,11.79c0,2.02,0,4.04,0,6.06c-2.39,3-4.52,6.28-7.21,8.98c-66.77,66.86-133.59,133.67-200.44,200.45
	c-1.4,1.4-3.28,2.32-4.94,3.46c0,0.72,0,1.43,0,2.15c1.66,1.14,3.54,2.06,4.94,3.46C518.04,471.32,584.86,538.13,651.62,605
	c2.7,2.7,4.82,5.97,7.21,8.98C658.84,615.99,658.84,618.01,658.84,620.03z"/>
    </symbol>

    <symbol id="arrow-r" viewBox="0 0 800 800">
        <g>
            <path class="st0" d="M506.31,542.98c51.57-47.85,102.33-94.95,153.65-142.57c-51.62-47.86-102.4-94.96-153.63-142.46
			c-11.63,10.82-22.44,20.87-33.91,31.55c31.27,29.06,62.01,57.63,92.74,86.2c-0.37,0.86-0.75,1.72-1.12,2.58
			c-145.09,0-290.17,0-435.25,0c0,15.37,0,29.31,0,44.69c145.72,0,290.79,0,438.78,0c-33.1,30.76-63.9,59.39-95.13,88.42
			C484.12,522.28,494.67,532.12,506.31,542.98z"/>
            <path d="M506.31,542.98c-11.64-10.86-22.19-20.7-33.88-31.59c31.23-29.02,62.03-57.66,95.13-88.42c-147.99,0-293.06,0-438.78,0
			c0-15.39,0-29.33,0-44.69c145.07,0,290.16,0,435.25,0c0.37-0.86,0.75-1.72,1.12-2.58c-30.74-28.57-61.47-57.13-92.74-86.2
			c11.47-10.67,22.29-20.73,33.91-31.55c51.23,47.5,102.01,94.6,153.63,142.46C608.64,448.03,557.88,495.13,506.31,542.98z"/>
        </g>
    </symbol>

    <symbol id="arrow-r-2" viewBox="0 0 800 800">
        <g>
            <path class="st0" d="M506.31,542.98c51.57-47.85,102.33-94.95,153.65-142.57c-51.62-47.86-102.4-94.96-153.63-142.46
			c-11.63,10.82-22.44,20.87-33.91,31.55c31.27,29.06,62.01,57.63,92.74,86.2c-0.37,0.86-0.75,1.72-1.12,2.58
			c-145.09,0-290.17,0-435.25,0c0,15.37,0,29.31,0,44.69c145.72,0,290.79,0,438.78,0c-33.1,30.76-63.9,59.39-95.13,88.42
			C484.12,522.28,494.67,532.12,506.31,542.98z"/>
            <path d="M506.31,542.98c-11.64-10.86-22.19-20.7-33.88-31.59c31.23-29.02,62.03-57.66,95.13-88.42c-147.99,0-293.06,0-438.78,0
			c0-15.39,0-29.33,0-44.69c145.07,0,290.16,0,435.25,0c0.37-0.86,0.75-1.72,1.12-2.58c-30.74-28.57-61.47-57.13-92.74-86.2
			c11.47-10.67,22.29-20.73,33.91-31.55c51.23,47.5,102.01,94.6,153.63,142.46C608.64,448.03,557.88,495.13,506.31,542.98z"/>
        </g>
    </symbol>

    <symbol id="whi-us_1" viewBox="0 0 800 800">
        <g>
            <path d="M265.57,31c10.62,10.12,22.1,19.5,31.7,30.52c24.92,28.59,42.42,61.26,50.39,98.64c0.89,4.16,1.63,8.36,2.25,12.57
			c0.59,4.04,0.93,8.13,1.43,12.69c1.31-0.54,2.46-0.92,3.53-1.47c40.48-20.86,83.57-28.9,128.83-26.15
			c7.76,0.47,11.7,3.99,12.31,11.9c2.65,34.44-1.66,68.08-13.43,100.52c-24.04,66.3-71.78,106.2-139.35,123.55
			c-21.18,5.44-42.78,8.08-64.61,8.93c-1.28,0.05-2.55,0.18-4.08,0.29c0,16.92,0,33.55,0,49.92c11.76,1.96,23.4,3.59,34.89,5.94
			c7.35,1.5,14.43,4.27,21.73,6.06c5.48,1.34,11.11,2.82,16.68,2.86c36.39,0.25,72.78,0.18,109.17,0.03
			c2.92-0.01,6.16-0.88,8.71-2.32c22.99-12.89,45.6-26.51,68.88-38.85c13.64-7.23,17.87-18.12,16.06-32.11
			c-2.17-16.79-10.42-30.23-24.9-39.33c-9.92-6.23-19.76-6.73-30.44-0.42c-44.4,26.25-89.06,52.07-133.7,77.9
			c-2.84,1.64-6.39,2.85-9.61,2.86c-5.22,0.01-9.21-4-10.38-8.96c-1.19-5.06,1.1-10.08,6.35-13.16
			c16.38-9.62,32.81-19.15,49.23-28.71c29.29-17.06,58.67-33.97,87.84-51.22c13.87-8.2,28.04-9.14,42.88-3.54
			c32.78,12.37,53.86,53.14,44.61,86.23c-3.47,12.42-10.61,21.97-21.91,28.35c-11.69,6.6-23.34,13.28-35,19.94
			c-1.37,0.78-2.71,1.63-3.97,3.44c1.85,0,3.69,0,5.54,0c66.39,0,132.77,0.01,199.16,0c18.57,0,35.65,4.56,50.41,16.28
			c28.74,22.82,29.76,60.89,2.21,85.15c-2.34,2.06-3.2,3.84-2.86,7.03c3.04,28.42-12.03,52.95-38.74,63.07
			c-3.17,1.2-4.38,2.62-4.83,6.08c-2,15.29-9.5,27.68-21.23,37.59c1.31,4.65,3.01,9.1,3.78,13.71c4.67,27.86-11.55,54.02-39.77,64.7
			c-9.21,3.49-18.72,4.23-28.47,4.22c-141.62-0.08-283.25-0.05-424.87-0.05c-63.6,0-127.2-0.16-190.8,0.17
			c-8.65,0.04-15.34-8.95-10.97-16.41c1.69-2.88,5.32-4.99,8.52-6.5c2.18-1.03,5.15-0.49,7.77-0.49
			c203.42-0.01,406.85-0.03,610.27,0.02c10.22,0,19.86-1.74,28.59-7.32c22.63-14.45,22.61-43.08-0.05-57.51
			c-8.57-5.46-18.04-7.42-28.09-7.41c-67.21,0.03-134.41,0.02-201.62,0.02c-1.64,0-3.28,0.05-4.92-0.02
			c-6.57-0.29-11.52-5.29-11.57-11.63c-0.05-6.09,4.63-11.24,10.9-11.87c1.79-0.18,3.6-0.09,5.41-0.09
			c63.44,0,126.88,0.29,190.31-0.16c22.38-0.16,43.59,1.96,61.03,17.96c10.12-9.29,14.89-20.14,11.85-33.35
			c-3.48-15.08-13.86-23.73-28.32-27.63c-4.35-1.17-9.07-1.34-13.63-1.35c-52.78-0.09-105.56-0.05-158.35-0.06
			c-9.29,0-14.68-4.6-14.48-12.24c0.15-5.91,4.38-10.58,10.3-11.21c1.95-0.21,3.93-0.15,5.89-0.15
			c52.29-0.01,104.58,0.01,156.87-0.01c28.16-0.01,49.12,11.8,61.72,37.42c0.21,0.42,0.57,0.77,0.85,1.15
			c14.98-5.84,24.6-19.92,23.61-34.52c-1.09-16.08-12.93-29.58-29.51-33.16c-4.28-0.92-8.77-1.14-13.17-1.15
			c-79.01-0.07-158.02-0.04-237.03-0.05c-9.16,0-14.49-4.75-14.14-12.51c0.26-5.89,4.65-10.52,10.53-11
			c1.79-0.15,3.6-0.07,5.41-0.07c77.7,0,155.4,0,233.09,0c26.21,0,38.95,5.52,56.76,24.6c9.46-5.82,13.23-21.68,7.64-33.4
			c-6.13-12.85-17.23-19.39-30.53-22.48c-5.05-1.17-10.39-1.58-15.59-1.59c-109.33-0.09-218.67-0.07-328-0.06
			c-1.57,0-3.13,0.15-5.28,0.26c6.84,5.83,13.37,10.96,19.41,16.63c29.92,28.07,50.03,61.96,59.86,101.86
			c1.87,7.58-1.4,13.89-7.94,15.54c-7.07,1.79-12.83-1.95-14.94-9.76c-16.36-60.7-53.14-104-111.76-126.9
			c-101.94-39.82-213.67,18.23-242.3,124.89c-0.34,1.26-0.62,2.55-1.04,3.79c-2.11,6.3-7.97,9.55-14.35,7.99
			c-5.9-1.44-10.3-7.45-8.34-13.53c4.86-15.06,9.38-30.39,16.09-44.65c14.44-30.65,36.27-55.52,63.69-75.45
			c1.02-0.74,1.99-1.54,3.75-2.9c-2.4-0.17-3.93-0.35-5.46-0.38c-38.35-0.65-76.7-1.28-115.05-1.93c-2.12-0.04-4.29-0.03-6.35-0.45
			c-6.29-1.27-10.29-6.77-9.57-12.88c0.72-6.15,5.52-10.37,12.28-10.31c17.86,0.16,35.73,0.48,53.59,0.76
			c37.69,0.59,75.39,1.19,113.08,1.76c1.45,0.02,3.01-0.03,4.36-0.52c18.61-6.71,37.83-10.44,57.91-11.82c0-16.88,0-33.62,0-50.24
			c-12.77-1.23-25.35-2.01-37.8-3.72c-47.01-6.46-89.81-22.55-124.35-56.43C57.51,313.3,40.49,276.3,32.51,234.79
			c-4.04-21-5.58-42.19-4.03-63.58c0.66-9.07,4.29-12.95,13.46-13.47c44.93-2.58,87.69,5.48,127.87,26.17
			c0.98,0.5,2.01,0.91,3.21,1.45c1.36-8.49,2.28-16.78,4.04-24.88c11.1-50.88,38.52-91.87,76.98-126.09
			c1.43-1.27,3.09-2.27,4.65-3.4C260.98,31,263.27,31,265.57,31z M274.25,325.21c80.15-90.73,65.41-192.55-12.02-265.85
			c-34.16,31.62-67.25,84.77-65.45,142.03c1.5,47.9,22.9,87.31,52.51,123.09c0.44-0.1,0.87-0.2,1.31-0.3c0-1.73,0-3.45,0-5.18
			c0-50.78,0-101.56,0.01-152.34c0-1.96-0.05-3.94,0.16-5.89c0.55-5.16,4.23-9.04,9.33-10.02c8.21-1.57,14.15,4.15,14.15,13.75
			c0.02,51.27,0.01,102.54,0.01,153.82C274.25,320.27,274.25,322.22,274.25,325.21z M473.38,180.99c-2.39-0.13-4-0.37-5.58-0.28
			c-9.48,0.52-19,0.71-28.43,1.77c-29.97,3.35-58.22,11.98-83.99,28.09c-3.25,2.03-4.38,4.5-5.17,8.09
			c-3.27,14.81-5.82,29.93-10.79,44.18c-12.57,36.03-34.85,66.08-60.72,93.66c-1.21,1.28-2.93,2.7-3.12,4.21
			c-0.72,5.94-0.92,11.95-1.33,18.33c2.55,0,4.48,0.09,6.4-0.01c20.15-1.11,40.1-3.62,59.62-8.9
			c43.68-11.82,79.59-34.66,103.74-73.87c17.09-27.75,25.44-58.29,28.14-90.53C472.83,197.64,472.97,189.5,473.38,180.99z
			 M249.94,379.49c0-4.52-0.05-8.24,0.01-11.97c0.08-4.97-1.8-8.77-5.15-12.66c-10.89-12.65-21.9-25.3-31.57-38.87
			c-20.43-28.66-34.31-60.28-38.56-95.51c-0.68-5.65-2.97-8.57-7.51-11.29c-34.32-20.58-71.92-28.12-111.38-28.58
			c-3.84-0.04-4.17,1.79-4.15,4.82c0.13,19.9,2.36,39.55,7.39,58.81c12.61,48.26,38.97,86.1,83.79,109.79
			c24.8,13.11,51.49,19.92,79.19,23.08C231.23,378.18,240.5,378.71,249.94,379.49z"/>
            <path d="M326.4,338.32c-9.82-1.29-15.28-10.93-10.69-18.78c0.82-1.39,1.94-2.63,3.07-3.81c30.82-32.4,61.68-64.77,92.49-97.19
			c3.61-3.79,7.55-6.25,13.03-4.85c8.18,2.1,11.61,11.5,6.63,18.34c-0.96,1.32-2.13,2.49-3.25,3.67
			c-30.5,32.03-60.96,64.1-91.59,96.01C333.44,334.48,329.65,336.15,326.4,338.32z"/>
            <path d="M188.98,331.92c-2.86-1.65-6.31-2.74-8.5-5.02c-31.66-32.97-63.17-66.08-94.66-99.22c-5.37-5.65-5.26-12.66-0.09-17.45
			c5.06-4.68,12.08-4.23,17.45,1.4c23.31,24.41,46.55,48.88,69.82,73.33c8.13,8.54,16.29,17.07,24.42,25.61
			c3.77,3.96,4.77,8.57,2.59,13.57C198.06,328.58,194.41,330.82,188.98,331.92z"/>
        </g>

    </symbol>

    <symbol id="whi-us_2" viewBox="0 0 800 800">
        <g>
            <path d="M9.4,449.52c0.95-8.23,1.87-16.46,2.88-24.68c0.54-4.44,1.2-8.87,1.85-13.3c1.07-7.29,5.9-10.93,13.13-9.91
			c6.62,0.94,10.3,5.99,9.56,13.09c-1.24,11.76-3.02,23.49-3.57,35.27c-3.11,66.32,13.95,127.18,50.77,182.37
			c36.06,54.03,84.59,92.8,145.34,115.71c46.06,17.37,93.81,23.65,142.78,17.27c94.68-12.34,168.57-58.72,220.68-138.47
			c35.88-54.92,51.23-115.99,47.12-181.5c-5.36-85.35-41.58-155.72-105.23-212.32c-5.72-5.09-11.88-9.71-18.08-14.22
			c-1.22-0.89-4.13-1.08-5.25-0.24c-9.6,7.17-18.97,14.64-28.4,22.04c-0.35,0.28-0.54,0.76-1.1,1.6c1.51,1.13,2.97,2.27,4.49,3.34
			c56.81,39.99,94.75,93.47,108.56,161.55c19.91,98.12-6.97,182.92-80.01,251.89c-35.55,33.56-78.28,54.11-126.2,63.94
			c-24.47,5.02-49.11,6.14-73.95,4.48c-2.23-0.15-4.47-0.29-6.68-0.64c-7.17-1.13-11.03-5.86-10.32-12.52
			c0.73-6.89,5.64-10.76,13.12-10.12c23.21,1.98,46.36,1.75,69.26-2.81c71.04-14.12,126.14-51.68,163.96-113.55
			c27.77-45.42,37.85-95.19,33.15-148.02c-0.83-9.3-2.73-18.5-4.28-28.63c-19.13,10.91-37.28,20.96-50.64,37.51
			c-7.57,9.38-10.88,20.39-10.23,32.19c0.73,13.38,1.77,26.83,4.04,40.01c3.19,18.45-1.36,34.94-10.7,50.38
			c-14.02,23.16-32.7,41.33-58.49,50.98c-25.58,9.57-46.61-0.89-54.39-26.9c-1.82-6.09-3.05-12.46-3.6-18.79
			c-0.99-11.29-1.47-22.64-1.79-33.97c-0.67-23.8-0.93-47.61-1.76-71.4c-0.19-5.34-1.67-10.73-3.23-15.89
			c-1.82-6.02-3.74-6.96-9.97-6.17c-18.22,2.32-36.39,5.2-54.67,6.91c-15.27,1.43-30.39-0.2-44.22-7.75
			c-17-9.28-26.08-24.61-31.02-42.56c-8.38-30.42,1.86-55.93,22.03-78.39c5.07-5.65,10.89-10.63,17.02-16.54
			c-5.98-0.98-11.39-1.77-16.76-2.77c-26.92-5.04-51.54-15.73-74.29-30.79c-3.05-2.02-4.89-2.07-7.77,0.34
			c-28.75,24.14-50.93,53.22-66.61,87.33c-1.58,3.44-1.15,5.69,0.86,9.01c8.92,14.75,17.27,29.84,25.82,44.82
			c0.08,0.14,0.15,0.28,0.22,0.43c5.51,13.04,15.12,20.64,29.1,23.63c6.6,1.41,13.05,4.39,19.04,7.61
			c14.96,8.05,21.56,22.53,15.97,38.49c-5.88,16.82-13.79,32.93-20.62,49.43c-3.41,8.24-6.75,16.55-9.31,25.07
			c-0.83,2.76,0.08,6.79,1.61,9.41c15.27,26.09,22.12,53.93,18.16,84.1c-0.41,3.12,0.78,4.81,3.25,6.15
			c14.86,8.05,29.64,16.26,44.59,24.13c6.85,3.6,9.41,7.98,7.44,14.55c-2.06,6.9-8.56,9.81-15.73,6.86
			c-33.26-13.64-62.58-33.21-87.79-58.84c-35.74-36.34-60.36-79.23-70.14-129.21c-19.62-100.23,8.37-185.66,83.4-255.34
			c1.29-1.2,2.63-2.33,3.93-3.52c0.22-0.2,0.32-0.54,0.69-1.21c-0.72-0.8-1.44-1.8-2.36-2.58
			c-42.75-36.42-74.89-81.03-100.74-130.49c-1.04-1.98-2.25-3.9-3.04-5.97c-2.01-5.25-0.3-10.15,4.96-14.8
			c22.96-20.28,47.9-37.79,74.37-53.18c29.72-17.28,61-30.77,94.59-38.51c53.32-12.29,103.89-5.89,150.72,23.31
			c11.89,7.42,23,16.14,34.15,24.67c6.49,4.97,6.43,12.51,0.6,17.73c-4.49,4.02-9.35,4.02-14.8,0.01
			c-9.53-6.99-18.74-14.47-28.65-20.87c-24.99-16.15-52.24-25.97-82.17-27.6c-1.59-0.09-3.19-0.04-4.79-0.01
			c-0.27,0.01-0.54,0.28-1.4,0.75c0.95,1.41,1.82,2.82,2.79,4.14c30.62,41.76,61.28,83.5,91.81,125.32
			c2.31,3.17,4.82,4.98,8.75,5.73c31.85,6.07,63.66,12.35,95.49,18.55c0.6,0.12,1.24,0.01,2.81,0.01c-1.01-1.94-1.62-3.45-2.52-4.76
			c-12.61-18.46-25.18-36.94-37.95-55.29c-4.64-6.67-4.66-12.51,0.63-16.99c5.48-4.65,12.29-3.91,17.04,2.47
			c9.55,12.81,19.23,25.55,28.01,38.88c7.9,11.98,14.62,24.74,22.01,37.08c1.35,2.26,3.05,4.59,5.17,6.06
			c19.74,13.78,37.87,29.38,54.2,47.07c0.7,0.76,1.59,1.34,3.43,2.87c-0.5-2.88-0.76-4.52-1.07-6.15
			c-5.08-26.87-5.94-53.68,1.62-80.27c8.11-28.54,25.28-51.03,47.65-69.81c28.59-24,61.69-39.54,97.02-50.76
			c4.26-1.35,8.57-2.54,12.9-3.66c7.16-1.86,11.46-0.11,15.2,6.44c10.97,19.21,19.69,39.45,26.33,60.52
			c6.93,22.02,11.68,44.52,11.89,67.72c0.39,42.48-15.12,78.14-46.43,106.93c-25.84,23.76-56.21,39.72-88.84,51.81
			c-6.1,2.26-12.29,4.28-18.98,6.6c1.83,4.67,3.51,8.9,5.15,13.16c21.45,55.94,27.94,113.69,16.71,172.45
			c-23.12,120.98-93.05,204.27-206.91,250.61c-29.04,11.82-59.61,17.83-90.89,20.13c-2.68,0.2-5.34,0.81-8,1.22
			c-10.23,0-20.46,0-30.69,0c-3.78-0.5-7.54-1.18-11.34-1.49c-31.07-2.51-61.24-9.19-90.33-20.28
			c-53.65-20.44-98.93-52.78-135.42-97.16c-43.53-52.96-68.4-113.6-74.2-181.99c-0.31-3.62-0.94-7.22-1.42-10.83
			C9.4,469.35,9.4,459.43,9.4,449.52z M410.62,521.45c-0.23,0.01-0.45,0.02-0.68,0.03c0,4.96-0.25,9.93,0.05,14.86
			c0.95,15.77,1.45,31.6,3.36,47.26c2.17,17.82,12.4,23.21,28.86,15.97c20.9-9.19,35.82-24.74,46.12-44.88
			c4.91-9.6,7.11-19.52,5.09-30.55c-2.1-11.45-3.09-23.12-4.14-34.73c-2.71-30.06,8.37-54.32,32.43-72.12
			c13.06-9.66,27.2-17.86,41.01-26.47c2.84-1.77,3.55-3.02,2.36-6.36C546,331.04,512.36,289.33,464.73,258.7
			c-3.35-2.16-5.73-1.95-9.07,0.01c-11.7,6.88-23.43,13.73-35.49,19.94c-29.75,15.34-61.07,26-94.36,30.51
			c-1.64,0.22-3.33,1.06-4.73,2.01c-5.27,3.6-10.67,7.07-15.59,11.12c-8.86,7.29-18.24,14.19-25.89,22.63
			c-14.77,16.3-21.69,35.24-14.57,57.43c6.39,19.92,18.84,29.95,39.69,30.82c8.57,0.36,17.26-0.32,25.81-1.31
			c13.96-1.61,27.83-4.02,41.78-5.78c12.68-1.6,22.03,3.74,28.23,14.73c4.97,8.81,7.15,18.51,7.75,28.44
			C409.37,486.64,409.88,504.05,410.62,521.45z M484.59,210.17c-1.64-0.56-2.75-1.09-3.93-1.32c-31.97-6.25-63.94-12.53-95.96-18.55
			c-2.13-0.4-5.06,0.59-6.9,1.93c-39.52,28.8-78.93,57.73-118.36,86.65c-1.23,0.9-2.4,1.9-4.72,3.74
			c6.86,1.39,12.38,2.76,17.98,3.61c30.99,4.71,61.18,0.59,90.75-8.95c43.86-14.14,82.84-37.31,119.26-65.11
			C483.3,211.74,483.73,211.1,484.59,210.17z M174.3,642.72c0.45-1.7,0.66-2.15,0.66-2.6c0-1.28-0.05-2.56-0.13-3.83
			c-1.14-18.35-6.04-35.59-15.88-51.17c-6.23-9.85-7.34-20.31-3.47-30.76c5.2-14.03,11.65-27.61,17.48-41.41
			c3.91-9.26,8.02-18.45,11.41-27.9c3.04-8.46,1.11-12.39-7.1-16.04c-4.65-2.07-9.45-4.06-14.4-5.18
			c-17.74-4-30.32-14.13-38.36-30.4c-4.53-9.16-9.68-18-14.59-26.97c-1.57-2.86-3.26-5.66-4.89-8.49
			c-13.58,45.69-12.95,91.03,0.75,136.09C118.59,576.18,141.14,612.3,174.3,642.72z M167.48,229.76
			c11.19,12.79,43.87,35.99,59.04,41.77c1.58,0.6,4.33-0.24,5.86-1.36c38.37-27.93,76.66-55.99,114.94-84.05
			c0.69-0.51,1.17-1.31,2.04-2.3c-1.42-0.54-2.39-1.08-3.42-1.28c-28.69-5.61-57.36-11.27-86.1-16.62c-2.42-0.45-5.74,0.52-7.8,2.01
			c-21.9,15.8-43.64,31.83-65.42,47.8C180.33,220.34,174.05,224.95,167.48,229.76z M352.05,160.34c-1.43-2.33-2-3.43-2.72-4.42
			c-28.99-39.56-58.04-79.09-86.92-118.73c-2.32-3.18-4.81-3.82-8.16-2.96c-14.82,3.82-29.68,7.52-44.43,11.58
			c-4.64,1.28-9,3.53-13.92,5.51c1.35,1.98,2.2,3.31,3.13,4.57c20.22,27.57,40.51,55.09,60.57,82.78c2.52,3.47,5.47,4.95,9.39,5.69
			c16.16,3.05,32.29,6.25,48.44,9.37C328.5,155.88,339.59,157.97,352.05,160.34z M645.26,304.95c0.86,0.37,1.17,0.63,1.42,0.59
			c0.77-0.14,1.54-0.34,2.27-0.61c22.74-8.39,44.3-19.07,63.89-33.44c21.23-15.58,38.92-34.2,48.01-59.53
			c2.65-7.38,4.17-15.17,6.43-23.61c-2.25,0.5-3.04,0.57-3.74,0.85c-27.15,11.19-54.33,22.34-81.39,33.74
			c-2.04,0.86-3.96,3.23-4.87,5.36c-8.73,20.4-17.23,40.9-25.78,61.38C649.38,294.76,647.33,299.86,645.26,304.95z M622.21,298.95
			c1.31-2.11,1.81-2.74,2.11-3.45c10.21-24.43,20.45-48.85,30.5-73.35c0.67-1.62,0.33-4.06-0.37-5.78
			c-8.39-20.7-16.92-41.33-25.44-61.98c-3.19-7.74-6.43-15.46-9.7-23.33c-0.95,0.54-1.46,0.68-1.73,1.01
			c-0.89,1.13-1.72,2.3-2.51,3.5c-12.16,18.42-17.33,38.92-17.7,60.75c-0.43,25.72,5.18,50.39,13.71,74.46
			C614.31,279.89,618.17,288.76,622.21,298.95z M93.29,133.32c0.53,1.68,0.61,2.34,0.91,2.86c15.49,26.58,33.24,51.51,53.79,74.44
			c2.28,2.55,3.83,2.31,6.35,0.45c22.24-16.41,44.55-32.7,66.86-49.02c0.87-0.64,1.84-1.13,2.77-1.69c-0.19-0.55-0.38-1.1-0.57-1.66
			C180.32,150.31,137.24,141.9,93.29,133.32z M667.72,188.11c0.47,0.04,0.94,0.07,1.42,0.11c17.36-41.5,34.72-83.01,52.52-125.56
			c-2.46,0.6-3.68,0.75-4.78,1.19c-6.23,2.47-12.51,4.84-18.63,7.57c-21.27,9.46-41.22,21.07-58.86,36.45
			c-2.76,2.41-3.2,4.4-1.69,7.75c3.67,8.15,6.87,16.51,10.28,24.77C654.55,156.3,661.14,172.21,667.72,188.11z M229.1,136.45
			c-0.96-1.77-1.25-2.49-1.7-3.1c-16.99-23.21-34.03-46.38-50.96-69.63c-1.92-2.64-3.5-2.22-5.99-0.96
			c-25.18,12.74-48.69,28.07-71,45.29c-0.67,0.52-1.11,1.32-2.26,2.72C141.27,119.35,184.58,127.78,229.1,136.45z M691.75,193.56
			c2.21-0.65,3.24-0.86,4.2-1.26c22.42-9.24,44.8-18.6,67.3-27.66c3.73-1.5,4.54-3.42,4.21-7.19c-2.41-28-10.37-54.48-21.56-80.1
			c-0.73-1.67-1.6-3.28-2.99-6.12C725.65,112.51,708.91,152.54,691.75,193.56z"/>
        </g>

    </symbol>

    <symbol id="whi-us_3" viewBox="0 0 800 800">
        <g>
            <path d="M584.22,14c4.88,1.65,10.04,2.76,14.6,5.04c20.83,10.44,31.84,27.65,32.01,50.84c0.38,49.16,0.14,98.32,0.1,147.48
			c-0.01,7.94-4.69,13.03-11.53,12.91c-6.76-0.12-10.96-4.94-10.97-12.87c-0.03-48.72,0.01-97.43-0.04-146.15
			c-0.01-15.57-7.73-27.74-21.31-32.69c-4.47-1.63-9.52-2.31-14.31-2.31c-125.71-0.12-251.42-0.1-377.14-0.09
			c-1.33,0-2.67,0.12-4,0.04c-4.15-0.26-5.61,1.46-5.59,5.76c0.16,31.83,0.03,63.67,0.1,95.51c0.03,13.45-4.76,24.54-15.48,32.85
			c-7.57,5.87-16.33,8.02-25.78,8c-31.54-0.04-63.08-0.02-94.62-0.01c-5.82,0-5.87,0.06-6.09,5.91c-0.04,1.04-0.05,2.07-0.05,3.11
			c0,179.17,0.01,358.33-0.03,537.5c0,12.34,4.38,22.57,14.96,28.93c5.11,3.07,11.54,3.98,17.41,5.74c1.09,0.33,2.36,0.07,3.54,0.07
			c164.06,0,328.12-0.02,492.19,0.05c8.59,0,16.46-1.73,23.27-7.1c8.29-6.54,12.5-15.22,12.88-25.72
			c0.19-5.18-0.05-10.37,0.13-15.54c0.22-6.3,4.5-10.76,10.43-11.21c5.51-0.41,11.2,3.53,11.64,9.4
			c1.16,15.45,1.28,30.94-7.28,44.79c-11.21,18.15-27.34,27.53-49,27.51c-91.36-0.11-182.72-0.05-274.08-0.05
			c-74.33,0-148.66,0.04-222.99-0.03c-24.88-0.02-45.34-14.69-52.79-38.44c-2.08-6.63-2.65-13.97-2.65-20.98
			c-0.14-149.26-0.11-298.51-0.11-447.77c0-28.73,0.23-57.45-0.08-86.18c-0.19-17.64,6.02-32.17,18.46-44.53
			c35.08-34.86,70.11-69.77,104.86-104.96c11.32-11.47,23.08-21.69,39.5-24.78C317.66,14,450.94,14,584.22,14z M62.03,155.61
			c1.15,0.05,2.57,0.18,3.99,0.18c25.74,0.01,51.49,0.01,77.23,0.01c14.35-0.01,20.37-5.93,20.38-20.12
			c0.02-25.89,0.01-51.78,0-77.68c0-1.4-0.15-2.79-0.21-3.77C129.64,88.01,95.94,121.7,62.03,155.61z"/>
            <path d="M541.21,626.19c0-16.43-0.06-32.87,0.06-49.3c0.02-3.2-0.82-4.51-4.25-5.23c-18.74-3.91-33.18-20.62-34.47-40.3
			c-0.75-11.53-6.13-18.76-16.67-23.28c-26.8-11.51-36.14-40.9-21.03-65.79c5.67-9.34,5.73-18.12,0.06-27.48
			c-15.15-24.97-5.94-54.15,20.89-65.82c10.47-4.55,15.96-11.69,16.75-23.25c1.96-28.65,29.64-47.2,55.41-40.33
			c11.65,3.11,20.26-0.46,27.9-9.33c14.49-16.83,38.48-20.47,57.15-8.85c4.08,2.54,7.84,5.9,10.98,9.54
			c7.18,8.32,15.45,11.41,26.45,8.85c25.67-5.97,48.65,7.87,55.11,32.72c0.81,3.13,1.04,6.42,1.36,9.65
			c0.98,9.96,6.16,16.55,15.4,20.39c20.1,8.37,30.93,25.28,28.81,46.55c-0.66,6.67-3.36,13.55-6.7,19.45
			c-5.46,9.65-5.78,18.42,0,27.95c15.22,25.1,5.34,55.09-21.82,66.25c-9.66,3.97-15.23,10.73-15.66,21.07
			c-0.87,20.78-16.12,38.59-36.04,42.31c-3.21,0.6-2.83,2.9-2.83,5.09c-0.01,14.95-0.01,29.91-0.01,44.86
			c0,17.32,0.09,34.64-0.04,51.96c-0.1,13.57-8.34,23.12-21.21,24.85c-5.99,0.8-11.4-0.96-16.46-4.09
			c-12.21-7.55-24.47-15-36.61-22.66c-2.83-1.79-4.94-2.05-7.96-0.12c-11.97,7.65-24.2,14.88-36.24,22.42
			c-8.46,5.29-17.17,6.51-26.03,1.54c-8.84-4.96-12.41-12.98-12.32-22.99C541.32,657.29,541.21,641.74,541.21,626.19z
			 M759.16,392.57c-0.58-11.79-4.92-19.13-13.87-22.69c-19.36-7.71-29.45-21.7-31.14-42.39c-1.22-14.89-13.84-23.6-28.34-20.05
			c-19.46,4.78-35.55-0.46-48.53-15.74c-9.94-11.7-25.45-11.71-35.45,0.06c-13,15.31-29.1,20.42-48.54,15.66
			c-14.48-3.55-27.51,5.86-28.47,20.59c-1.31,20.05-11.22,33.74-29.77,41.34c-14.19,5.81-19.1,20.56-11.03,33.67
			c10.51,17.08,10.48,33.94-0.02,51.01c-8.06,13.08-3.16,27.84,11.09,33.67c18.58,7.6,28.49,21.29,29.74,41.34
			c0.47,7.56,3.93,13.54,10.28,17.76c6.41,4.26,13.22,4.11,20.46,2.44c17.92-4.13,33.06,0.98,45.13,14.78
			c11.77,13.45,25.94,13.43,37.86-0.08c12.12-13.74,27.19-18.67,45.19-14.81c3.7,0.79,7.69,1.5,11.37,0.98
			c11.15-1.57,18.18-9.4,19.14-21.14c1.65-20.11,11.52-33.9,30.35-41.49c13.66-5.5,18.58-20.55,10.79-33.14
			c-10.65-17.21-10.81-34.13-0.22-51.41C757.41,399.28,758.33,394.82,759.16,392.57z M563.71,676.76c2.51-1.18,3.98-1.71,5.28-2.51
			c12.12-7.39,24.3-14.71,36.29-22.3c9.51-6.02,18.82-6.14,28.34-0.23c12.07,7.49,24.16,14.93,36.3,22.3
			c1.39,0.84,3.14,1.09,4.72,1.61c0.3-1.54,0.85-3.09,0.85-4.63c0.05-31.82,0.04-63.65,0.04-95.47c0-5.19-0.7-5.81-6.01-4.96
			c-6.65,1.07-11.48,4.97-15.73,10c-7.79,9.24-17.77,14.57-29.87,15.59c-15.72,1.33-28.76-4.08-38.97-16.08
			c-4.28-5.03-9.24-8.65-15.93-9.62c-3.79-0.55-5.47,0.25-5.44,4.77c0.21,31.97,0.11,63.94,0.11,95.91
			C563.7,672.59,563.71,674.03,563.71,676.76z"/>
            <path d="M395.02,91.33c37.6,0,75.2-0.01,112.8,0c17.45,0.01,27.5,10.06,27.55,27.56c0.03,11.1,0.08,22.21-0.02,33.31
			c-0.14,15.22-10.78,26.01-26.08,26.04c-52.11,0.1-104.22,0.05-156.33,0.02c-6.81,0-11.39-3.36-12.68-8.94
			c-1.1-4.73,1.27-10.23,5.96-12.19c2.61-1.09,5.74-1.29,8.64-1.29c50.18-0.07,100.37-0.05,150.55-0.05c7.41,0,7.48-0.06,7.48-7.4
			c0-8.88,0-17.76,0-26.65c0-7.89,0-7.9-7.69-7.9c-73.72,0-147.44,0-221.17,0c-1.18,0-2.37,0.05-3.55,0.01
			c-2.82-0.09-4.01,1.33-4,4.06c0.02,11.1,0.03,22.21-0.01,33.31c-0.01,3.18,1.47,4.59,4.6,4.57c5.48-0.04,10.96-0.07,16.43,0.02
			c7.37,0.12,12.33,4.62,12.37,11.09c0.04,6.45-4.96,11.29-12.25,11.31c-7.83,0.02-15.76,0.31-23.46-0.78
			c-11.02-1.57-19.39-10.78-19.86-21.93c-0.58-13.74-0.67-27.54-0.02-41.28c0.64-13.6,11.57-22.87,25.72-22.88
			C318.34,91.31,356.68,91.33,395.02,91.33z"/>
            <path d="M262.17,444.21c46.18,0,92.36,0,138.55,0c1.92,0,3.86-0.05,5.77,0.11c5.88,0.5,10.2,5.03,10.38,10.76
			c0.18,5.75-3.81,10.58-9.62,11.49c-1.45,0.23-2.95,0.17-4.43,0.17c-94.14,0.01-188.28,0.04-282.42-0.12
			c-3.45-0.01-7.38-1.2-10.22-3.12c-3.63-2.46-4.62-6.71-3.27-11.15c1.39-4.56,4.54-7.21,9.18-7.94c2.03-0.32,4.13-0.2,6.2-0.2
			C168.92,444.21,215.54,444.21,262.17,444.21z"/>
            <path d="M261.6,523.35c46.62,0,93.24-0.01,139.86,0.01c2.07,0,4.16,0,6.19,0.31c5.3,0.81,8.97,5.05,9.19,10.38
			c0.22,5.38-2.99,9.92-8.19,11.2c-1.98,0.49-4.1,0.62-6.15,0.62c-93.83,0.03-187.67,0.02-281.5,0.02c-0.3,0-0.59,0-0.89,0
			c-8.34-0.1-13.69-4.48-13.75-11.25c-0.06-6.81,5.23-11.27,13.6-11.28C167.17,523.34,214.39,523.35,261.6,523.35z"/>
            <path d="M261.61,286.08c46.62,0,93.24,0,139.86,0.01c2.07,0,4.16-0.02,6.19,0.3c5.35,0.85,8.98,5.06,9.19,10.38
			c0.22,5.57-3.19,10.18-8.62,11.3c-2.15,0.44-4.41,0.53-6.61,0.53c-93.24,0.03-186.48,0.03-279.72,0c-2.21,0-4.46-0.08-6.62-0.51
			c-5.34-1.07-9.11-5.93-8.9-11.18c0.2-5.16,3.99-9.61,9.19-10.49c2.02-0.34,4.12-0.33,6.19-0.33
			C168.37,286.08,214.99,286.08,261.61,286.08z"/>
            <path d="M261.19,387.54c-46.62,0-93.25,0.01-139.87-0.03c-2.63,0-5.41-0.05-7.87-0.85c-4.59-1.49-7.51-6.56-7.05-11.21
			c0.53-5.33,4.59-9.51,10.11-10.25c1.6-0.21,3.25-0.15,4.88-0.15c93.54-0.01,187.09-0.01,280.63,0.02c2.34,0,4.79,0.07,7.01,0.72
			c5.38,1.56,8.35,6.37,7.76,11.93c-0.57,5.35-4.78,9.32-10.39,9.72c-1.77,0.13-3.55,0.09-5.33,0.09
			C354.44,387.54,307.81,387.54,261.19,387.54z"/>
            <path d="M190.19,639.27c22.94,0,45.87-0.02,68.81,0.03c2.34,0.01,4.81,0.05,6.99,0.77c4.85,1.6,7.72,6.55,7.16,11.53
			c-0.56,5.03-4.27,9-9.36,9.93c-1.15,0.21-2.36,0.21-3.54,0.21c-46.91,0.01-93.82,0.01-140.73-0.02c-1.75,0-3.58-0.16-5.23-0.68
			c-5.29-1.65-8.58-6.82-7.83-11.95c0.79-5.44,4.93-9.32,10.48-9.73c1.77-0.13,3.55-0.1,5.32-0.1
			C144.91,639.26,167.55,639.27,190.19,639.27z"/>
            <path d="M619.32,522.73c-51.8-0.11-94.07-42.45-94.03-94.19c0.03-52.02,42.51-94.45,94.4-94.29
			c52.38,0.16,94.43,42.52,94.19,94.88C713.64,480.91,671.28,522.84,619.32,522.73z M619.78,500.19
			c39.73-0.14,71.67-32.21,71.56-71.85c-0.11-39.68-32.21-71.61-71.9-71.54c-39.54,0.08-71.86,32.51-71.63,71.88
			C548.04,468.36,580.22,500.33,619.78,500.19z"/>
        </g>

    </symbol>

    <symbol id="whi-us_4" viewBox="0 0 901 484">
        <g>
            <path d="M32.98,10c214.14,0,428.29,0,642.43,0c17.26,5.51,23.23,17.82,22.34,35.16c-0.7,13.58,0.12,27.24-0.27,40.85
			c-0.16,5.49,1.62,6.83,6.92,6.8c37.45-0.21,74.9-0.13,112.35-0.08c2.83,0,5.7,0.21,8.47,0.74c5.11,0.99,8.11,4.39,9.44,9.29
			c1.38,5.09-0.2,9.66-4.3,12.43c-3.84,2.6-3.43,4.99-2.19,8.65c8.56,25.19,17.45,50.3,25.14,75.76
			c4.58,15.16,11.19,28.26,23.46,38.77c9.88,8.46,13.78,20,13.66,33.25c-0.32,35.17-0.6,70.35,0.11,105.5
			c0.33,16.08-10.88,30.87-30.48,30.31c-14.64-0.42-29.32,0.27-43.96-0.24c-6.41-0.23-8.8,1.43-9.32,8.07
			c-2.45,31.14-29.03,57.47-61.22,60.2c-31.23,2.66-61.84-17.28-70.42-47.58c-1.45-5.12-3.54-6.98-9.12-6.97
			c-102.17,0.19-204.35,0.19-306.52,0c-5.76-0.01-7.91,1.77-9.63,7.18c-8.03,25.16-25.44,41.05-51.13,46.26
			c-25.2,5.12-47.05-2.49-64.47-21.78c-1.19-1.32-2.39-2.63-3.93-4.32c-4.31,4.37-7.94,8.8-12.29,12.35
			c-37.49,30.64-94.26,12.89-107.66-33.67c-1.3-4.51-3.23-6.24-7.99-5.99c-7.51,0.4-15.06,0.29-22.59,0.04
			c-16.63-0.55-27.23-11.37-27.53-27.95c-0.11-6.5-0.38-13.03,0.08-19.51c0.4-5.69-1.18-8.14-7.3-7.55
			c-16.3,1.55-28.05-4.82-34.07-20.5c0-104.91,0-209.81,0-314.72C14.94,20.24,22.31,13.37,32.98,10z M684.3,366.39
			c-0.9-0.1-2.07-0.33-3.24-0.33c-12.21-0.04-24.43,0.21-36.63-0.16c-8.67-0.26-13.92-5.72-13.7-13.19
			c0.22-7.18,5.54-12.04,13.91-12.33c6.3-0.22,12.62-0.06,18.93-0.07c8.27-0.01,8.27-0.01,8.27-8.29c0-95.94,0-191.88,0-287.83
			c0-8.32,0-8.33-8.35-8.33c-206.16,0-412.33,0-618.49,0c-8.3,0-8.3,0.01-8.3,8.25c0,95.54-0.01,191.07,0.02,286.61
			c0,9.92-1.57,9.59,9.43,9.59c178.28,0,356.56,0,534.84,0.01c3.05,0,6.13-0.03,9.13,0.39c6.28,0.86,10.65,5.89,10.83,12.06
			c0.18,5.88-3.67,11.09-9.64,12.39c-3.14,0.69-6.45,0.83-9.68,0.83c-78.15,0.04-156.3,0.03-234.45,0.03c-2.3,0-4.6,0-7.05,0
			c3.7,8.1,7.79,14.99,9.95,22.44c1.68,5.81,4.31,6.95,9.79,6.94c101.76-0.15,203.52-0.11,305.28-0.11c1.63,0,3.35,0.31,4.85-0.13
			c1.35-0.4,3.07-1.37,3.58-2.54C677.23,384.14,680.61,375.53,684.3,366.39z M808.95,147.71c-3.28-9.78-5.96-18.43-9.22-26.86
			c-0.51-1.32-3.6-2.31-5.5-2.32c-30.31-0.14-60.62-0.05-90.94-0.17c-4.11-0.02-5.76,1.13-5.76,5.5c0.1,70.3,0.1,140.61,0,210.91
			c-0.01,4.21,1.27,5.72,5.58,5.63c10.78-0.25,21.56,0.01,32.34-0.1c29.05-0.28,50.85,11.79,64.98,37.44c1.01,1.84,3.94,3.68,6,3.71
			c17.69,0.29,35.4,0.11,53.09,0.21c3.61,0.02,5.09-1.19,5.06-4.94c-0.13-15.85-0.14-31.7,0-47.55c0.03-3.63-1.57-4.48-4.8-4.44
			c-4.05,0.04-8.17,0.06-12.14-0.61c-6.31-1.07-10.6-6.41-10.56-12.33c0.04-6.19,4.7-11.54,11.27-12.35
			c4.02-0.5,8.17,0.03,12.15-0.59c1.5-0.23,3.79-2.39,3.83-3.74c0.3-9.13,0.47-18.3-0.04-27.42c-0.46-8.27-4.72-11.72-12.93-11.72
			c-31.53-0.01-63.07,0.07-94.6-0.03c-19.33-0.07-29.82-10.61-29.88-29.81c-0.06-20.32-0.03-40.64-0.01-60.96
			c0.01-13.17,4.31-17.43,17.64-17.46c18.92-0.03,37.84-0.01,56.76-0.01C803.44,147.71,805.59,147.71,808.95,147.71z M176.06,366.14
			c-22.91-0.58-42.25,17.9-42.91,41.01c-0.66,23.01,18.2,42.52,41.63,43.04c22.51,0.5,41.82-18.05,42.5-40.84
			C217.98,386.04,199.57,366.74,176.06,366.14z M327.39,408.88c0.52-23.02-17.76-42.04-41.06-42.74
			c-23.12-0.69-42.58,18.06-43.08,41.49c-0.48,22.66,18.33,41.93,41.53,42.56C307.51,450.8,326.87,432.02,327.39,408.88z
			 M740.49,366.14c-23.04-0.53-42.18,17.84-42.78,41.04c-0.6,23.21,18.04,42.5,41.56,43.01c22.63,0.5,42.11-18.49,42.57-41.49
			C782.3,385.86,763.66,366.67,740.49,366.14z M835.57,230.25c-0.11-1.94,0.02-2.77-0.22-3.49c-5.5-16.55-10.89-33.13-16.77-49.54
			c-0.64-1.79-4.14-3.58-6.34-3.62c-17.87-0.29-35.76,0.02-53.63-0.28c-5.1-0.09-6.11,1.85-6.05,6.4
			c0.22,14.81,0.27,29.63-0.02,44.44c-0.1,4.93,1.62,6.23,6.32,6.18c20.72-0.2,41.44-0.09,62.17-0.09
			C825.66,230.25,830.3,230.25,835.57,230.25z M120.11,366.11c-13.03,0-26.14-0.09-39.24,0.19c-0.98,0.02-2.65,2.7-2.72,4.2
			c-0.3,6.67-0.03,13.36-0.17,20.05c-0.07,3.28,1.02,4.85,4.53,4.79c7.5-0.13,15.01,0.13,22.5-0.18c1.46-0.06,3.51-1.72,4.15-3.15
			C112.87,383.77,116.24,375.39,120.11,366.11z"/>
            <path d="M354.25,285.29c89.56,0,179.12,0,268.68,0.02c3.04,0,6.13,0.03,9.12,0.54c5.89,1,10.1,6.11,10.26,11.97
			c0.16,5.8-3.83,11.08-9.73,12.37c-2.75,0.6-5.64,0.79-8.47,0.79c-179.94,0.04-359.87,0.04-539.81-0.01
			c-3.03,0-6.14-0.22-9.06-0.93c-5.43-1.32-9.29-6.81-9.12-12.27c0.17-5.51,4.28-10.78,9.73-11.82c3.17-0.6,6.47-0.65,9.71-0.65
			C175.13,285.28,264.69,285.29,354.25,285.29z"/>
            <path d="M188.04,408.33c-0.1,7.01-6.1,12.74-13.05,12.47c-6.68-0.26-12.4-6.09-12.42-12.65c-0.01-6.99,5.8-12.72,12.88-12.67
			C182.53,395.53,188.14,401.26,188.04,408.33z"/>
            <path d="M285.48,395.49c7.14-0.01,12.69,5.59,12.65,12.73c-0.05,7.06-5.9,12.78-12.89,12.58c-6.68-0.18-12.41-5.94-12.5-12.55
			C272.65,401.24,278.39,395.49,285.48,395.49z"/>
            <path d="M740.11,395.49c7.03,0.14,12.7,6.09,12.45,13.05c-0.25,6.68-6.07,12.3-12.72,12.27c-6.95-0.03-12.86-5.99-12.76-12.86
			C727.17,400.96,733.04,395.35,740.11,395.49z"/>
        </g>

    </symbol>

    <symbol id="whi-us_5" viewBox="0 0 800 800">
        <g>
            <path d="M10.34,713.46c0.7-1.71,1.69-3.36,2.06-5.14c5.94-28.64,21.9-49.75,47.51-63.69c1.04-0.57,1.95-1.38,2.85-2.03
			c-18.78-49.24-10.44-86.33,24.78-111.09c30.53-21.46,72.83-19.35,101.25,4.94c28.63,24.47,39.33,67.25,18.24,105.36
			c9.24,6.78,18.5,13.58,28.39,20.84c13.14-34.08,36.63-59.03,71.64-73.61c-20.8-32.59-26.04-67.13-12.91-103.55
			c8.59-23.83,24.08-42.49,45.44-56.13c42.36-27.05,97.87-22.17,135.35,11.09c35.53,31.53,54.18,92.57,17.9,148.54
			c34.24,14.45,58.14,39.04,71.35,73.75c9.51-7,18.76-13.81,28.49-20.98c-11.81-21.02-14.46-43.78-7.11-67.32
			c5.56-17.82,16.44-32,31.67-42.82c29.6-21.04,70.07-19.75,99.3,3.18c31.76,24.92,38.82,61.88,20.3,107.86
			c1.45,0.89,2.95,1.88,4.51,2.77c24.32,13.77,40.16,34.13,45.46,61.59c2.25,11.68,1.91,23.89,2.45,35.87
			c0.32,7.05-0.48,14.17,0.18,21.18c1.02,10.81-1.47,19.64-11.29,25.43c-104.7,0-209.41,0-314.11,0c-0.45-0.43-0.84-0.94-1.35-1.28
			c-8.45-5.76-11.25-11.32-9.25-18.41c2.13-7.56,8.17-11.22,18.58-11.23c20.55-0.01,41.1,0,61.65-0.02c2.2,0,4.4-0.2,6.42-0.3
			c0-21.96,1.32-43.39-0.29-64.6c-2.8-36.89-30.1-68.55-65.83-78.52c-2.69-0.75-6.67-0.07-8.98,1.51
			c-40.24,27.59-90.11,27.58-130.3,0c-2.3-1.58-6.35-2.31-8.97-1.49c-33.78,10.6-55.79,33.08-64.03,67.51
			c-5.85,24.45-2.2,49.6-2.52,74.45c0,0.32,0.46,0.64,1.09,1.47c2.09,0,4.56,0,7.02,0c21.17,0,42.35-0.07,63.52,0.05
			c7.77,0.04,13.53,4.43,15.45,11.19c1.84,6.46-0.84,12.88-7.11,17.12c-1.19,0.81-2.32,1.71-3.48,2.56c-104.7,0-209.41,0-314.11,0
			c-3.74-3.74-7.48-7.48-11.22-11.22C10.34,756.67,10.34,735.07,10.34,713.46z M482.09,524.63c0-45.65-36.93-82.51-82.48-82.29
			c-45.46,0.21-81.93,36.79-81.96,82.18c-0.03,45.65,36.85,82.44,82.46,82.28C445.52,606.63,482.08,569.99,482.09,524.63z
			 M42.51,758.05c61.71,0,123.63,0,185.94,0c0-12.31,0.29-24.11-0.06-35.9c-0.71-23.88-16.55-45.47-39.21-53.32
			c-2.6-0.9-6.57-0.38-8.98,1.04c-30.35,17.86-60.46,17.85-90.74-0.17c-2.26-1.35-6.04-1.89-8.43-0.99
			c-20.82,7.77-34.85,22.5-38.12,44.49C40.75,727.75,42.51,742.87,42.51,758.05z M758.4,758.25c0-12.2,0.24-23.99-0.05-35.76
			c-0.6-24.05-16.71-46-39.54-53.75c-2.47-0.84-6.2-0.42-8.45,0.93c-30.51,18.17-60.79,18.11-91.27-0.08
			c-2.23-1.33-6.01-1.67-8.46-0.79c-17.38,6.3-29.41,18.33-35.83,35.66c-6.48,17.48-2.59,35.6-3.7,53.79
			C633.83,758.25,695.61,758.25,758.4,758.25z M135.52,547.18c-29.25-0.29-52.99,22.86-53.31,51.99
			c-0.32,29.55,23.01,53.32,52.46,53.48c29.2,0.15,52.79-23.12,53.03-52.32C187.94,571.12,164.72,547.47,135.52,547.18z
			 M664.76,652.64c29.21,0,52.69-23.39,52.77-52.57c0.08-29.24-23.21-52.75-52.41-52.9c-29.5-0.15-53.14,23.38-53.11,52.85
			C612.05,629.16,635.59,652.64,664.76,652.64z"/>
            <path d="M10.34,46.61c1.05-2.2,2.29-4.32,3.12-6.6c6.35-17.36,23.12-29.47,41.51-29.47c229.92-0.04,459.84-0.05,689.76,0.01
			c24.16,0.01,44.51,20.36,44.55,44.54c0.11,65.42,0.09,130.85,0.01,196.27c-0.03,23.93-18.46,43.15-42.52,44.32
			c-9.53,0.46-19.11,0.36-28.65,0.07c-4.68-0.14-6.07,1.46-6.05,6.06c0.09,17.65-0.3,35.31-0.25,52.96
			c0.02,7.45-0.93,14.26-8.33,18.05c-7.36,3.77-13.43,0.77-19.49-3.7c-31.59-23.29-63.25-46.5-95.08-69.46
			c-3.09-2.23-7.51-3.63-11.32-3.66c-36.35-0.27-72.69-0.05-109.04-0.29c-5.03-0.03-7.85,1.71-10.57,5.74
			c-14.27,21.18-28.8,42.19-43.29,63.22c-9.28,13.47-20.39,13.47-29.66,0c-14.48-21.04-28.99-42.06-43.27-63.24
			c-2.71-4.01-5.55-5.76-10.58-5.73c-36.35,0.23-72.69,0.02-109.04,0.29c-3.81,0.03-8.22,1.48-11.31,3.7
			c-32,23.08-63.84,46.39-95.61,69.79c-5.94,4.37-11.93,6.89-18.99,3.29c-6.86-3.49-8.31-9.69-8.3-16.8
			c0.02-18.07-0.34-36.14-0.25-54.21c0.02-4.62-1.44-6.2-6.08-6.03c-8.3,0.31-16.61,0.14-24.92,0.07
			c-21.88-0.18-37.08-11.16-44.12-31.72c-0.52-1.52-1.47-2.9-2.22-4.35C10.34,188.7,10.34,117.66,10.34,46.61z M680.06,328.42
			c0.63-0.24,1.26-0.48,1.9-0.72c0-14.7-0.08-29.41,0.02-44.11c0.09-12.68,5.59-18.07,18.38-18.14c13.5-0.07,27.01,0.01,40.51-0.03
			c13.22-0.04,17.59-4.39,17.59-17.52c0.01-62.94,0.01-125.89,0-188.83c0-13.56-4.21-17.68-18-17.68c-45.91-0.01-91.82,0-137.73,0
			c-181.35,0-362.7,0-544.05,0c-12.7,0-17.36,4.39-17.37,16.42c-0.02,63.77-0.02,127.55,0,191.32c0,11.48,4.71,16.19,16.32,16.27
			c14.13,0.09,28.25-0.05,42.38,0.06c12.01,0.09,17.58,5.61,17.77,17.49c0.2,12.67,0.24,25.34,0.38,38.01
			c0.03,2.34,0.21,4.69,0.38,8.11c2.91-1.99,4.77-3.2,6.57-4.51c24.65-18.02,49.16-36.23,74.05-53.92c4.1-2.91,9.82-4.94,14.81-4.99
			c42.79-0.39,85.58-0.13,128.38-0.3c8.09-0.03,13.7,3.08,18.16,9.75c11.55,17.26,23.43,34.3,35.2,51.41
			c1.23,1.78,2.56,3.49,4.18,5.68c1.73-2.36,2.98-3.98,4.14-5.67c11.77-17.12,23.67-34.14,35.19-51.42
			c4.47-6.71,10.09-9.76,18.16-9.73c42.79,0.16,85.59-0.09,128.38,0.3c5,0.04,10.66,2.1,14.82,4.96
			c15.57,10.7,30.65,22.13,45.91,33.27C657.67,312.08,668.86,320.25,680.06,328.42z"/>
            <path d="M395.49,789.5c-1.45-1.13-2.89-2.27-4.37-3.37c-5.59-4.19-7.8-10.85-5.62-17.05c2.16-6.14,7.8-10.33,14.07-10.44
			c6.51-0.12,12.47,4.14,14.67,10.48c2.17,6.24-0.03,12.87-5.64,17.04c-1.48,1.1-2.93,2.23-4.4,3.35
			C401.31,789.5,398.4,789.5,395.49,789.5z"/>
            <path d="M497.15,95.83c63.53,0,127.07,0,190.6,0.01c2.49,0,4.99-0.05,7.47,0.14c8.15,0.65,14.08,6.67,14.37,14.46
			c0.28,7.68-5.35,14.34-13.31,15.54c-2.24,0.34-4.56,0.24-6.84,0.24c-128.52,0.01-257.04,0.02-385.56-0.03
			c-3.28,0-6.7-0.13-9.83-1.02c-6.75-1.92-10.89-8.33-10.39-15.21c0.52-7.16,5.81-12.95,12.94-13.85c2.87-0.36,5.8-0.27,8.71-0.27
			C369.26,95.83,433.2,95.83,497.15,95.83z"/>
            <path d="M303.93,180.6c63.53,0,127.06,0,190.6,0.01c2.9,0,5.83-0.02,8.7,0.36c7.2,0.97,12.37,6.7,12.83,13.9
			c0.45,7.15-4.05,13.58-11.08,15.32c-2.58,0.64-5.34,0.76-8.01,0.76c-129.14,0.03-258.28,0.04-387.42,0
			c-2.88,0-5.86-0.14-8.62-0.86c-6.69-1.75-11.09-8.12-10.78-14.96c0.32-7.12,5.53-13.09,12.63-14.1c3.06-0.44,6.21-0.41,9.32-0.41
			C176.03,180.59,239.98,180.6,303.93,180.6z"/>
            <path d="M161.23,95.86c18.69,0,37.39-0.15,56.07,0.06c10.92,0.12,17.84,8.55,15.63,18.4c-1.7,7.57-7.57,11.85-16.75,11.88
			c-20.56,0.07-41.12,0.03-61.68,0.02c-16.2,0-32.4,0.11-48.6-0.07c-7.6-0.08-12.98-4.23-15.06-10.85
			c-1.92-6.12,0.06-13.26,5.67-16.38c3.43-1.91,7.79-2.89,11.76-2.95c17.65-0.31,35.3-0.13,52.96-0.13
			C161.23,95.84,161.23,95.85,161.23,95.86z"/>
            <path d="M637.94,210.99c-18.06,0-36.12-0.02-54.19,0.01c-6.17,0.01-11.51-1.63-14.98-7.14c-5.82-9.23-0.35-21.27,10.43-22.87
			c2.45-0.36,4.97-0.36,7.45-0.37c34.26-0.02,68.51-0.03,102.77,0c2.69,0,5.43,0.03,8.07,0.48c6.74,1.16,11.73,7.06,12.09,13.95
			c0.34,6.53-3.83,12.97-10.11,14.86c-2.73,0.82-5.72,1.02-8.59,1.03C673.24,211.03,655.59,210.99,637.94,210.99z"/>
        </g>

    </symbol>

</svg>


