<svg display="none" xmlns="http://www.w3.org/2000/svg">

    <symbol id="menu" viewBox="0 0 24 24">
        <path
                d="M4 6C4 5.44772 4.44772 5 5 5H19C19.5523 5 20 5.44772 20 6C20 6.55228 19.5523 7 19 7H5C4.44772 7 4 6.55228 4 6Z"
        />
        <path
                d="M4 18C4 17.4477 4.44772 17 5 17H19C19.5523 17 20 17.4477 20 18C20 18.5523 19.5523 19 19 19H5C4.44772 19 4 18.5523 4 18Z"
        />
        <path
                d="M11 11C10.4477 11 10 11.4477 10 12C10 12.5523 10.4477 13 11 13H19C19.5523 13 20 12.5523 20 12C20 11.4477 19.5523 11 19 11H11Z"
        />
    </symbol>

    <symbol id="exit" viewBox="0 0 800 800">
        <path d="M658.84,620.03c-2.25,2.9-4.26,6.04-6.79,8.66c-7.36,7.62-14.92,15.04-22.41,22.53c-9.66,9.67-14.49,9.71-24.02,0.18
	c-66.94-66.94-133.88-133.88-200.8-200.84c-1.3-1.3-2.28-2.9-3.42-4.37c-0.74-0.29-1.47-0.57-2.21-0.86
	c-1.02,1.75-1.71,3.82-3.1,5.21c-67.01,67.11-134.07,134.17-201.13,201.22c-8.93,8.93-14.11,8.96-22.94,0.14
	c-7.97-7.96-15.94-15.92-23.9-23.9c-8.18-8.2-8.2-13.7-0.03-21.86c67.18-67.18,134.36-134.35,201.57-201.51
	c1.41-1.41,3.05-2.6,4.85-4.12c-1.93-2.04-3.25-3.5-4.64-4.89c-66.82-66.82-133.65-133.64-200.48-200.45
	c-1.19-1.19-2.43-2.33-3.54-3.59c-5.03-5.73-5.29-11.63-0.01-17.13c9.43-9.83,19.15-19.37,28.87-28.91c1.62-1.6,3.82-2.61,5.75-3.89
	c2.02,0,4.04,0,6.06,0c3.35,2.73,6.96,5.2,10,8.23c66.52,66.42,132.98,132.89,199.41,199.4c1.4,1.4,2.34,3.27,3.49,4.92
	c0.72,0.03,1.43,0.05,2.15,0.08c1.13-1.66,2.04-3.56,3.43-4.96c66.79-66.86,133.61-133.69,200.48-200.47
	c2.69-2.69,5.96-4.81,8.96-7.2c2.02,0,4.04,0,6.06,0c2.41,1.76,5.06,3.26,7.18,5.31c7.2,6.96,14.32,14.02,21.25,21.24
	c3.55,3.7,6.63,7.85,9.92,11.79c0,2.02,0,4.04,0,6.06c-2.39,3-4.52,6.28-7.21,8.98c-66.77,66.86-133.59,133.67-200.44,200.45
	c-1.4,1.4-3.28,2.32-4.94,3.46c0,0.72,0,1.43,0,2.15c1.66,1.14,3.54,2.06,4.94,3.46C518.04,471.32,584.86,538.13,651.62,605
	c2.7,2.7,4.82,5.97,7.21,8.98C658.84,615.99,658.84,618.01,658.84,620.03z"/>
    </symbol>

</svg>


